<svg width="49" height="49" viewBox="0 0 49 49" fill="none" xmlns="http://www.w3.org/2000/svg">
<g clip-path="url(#clip0_19_60)" filter="url(#filter0_d_19_60)">
<path fill-rule="evenodd" clip-rule="evenodd" d="M24.8896 0.0220947C35.9966 0.0220947 45 9.25264 45 20.6412C45 29.7492 39.2444 37.4757 31.2586 40.2047C30.239 40.4078 29.877 39.7639 29.877 39.2149C29.877 38.5351 29.9011 36.315 29.9011 33.5558C29.9011 31.6333 29.2576 30.3785 28.5356 29.739C33.0142 29.2282 37.72 27.4844 37.72 19.565C37.72 17.3126 36.9397 15.4746 35.6487 14.0307C35.8578 13.5098 36.5476 11.4125 35.4516 8.57296C35.4516 8.57296 33.7663 8.02046 29.9272 10.6871C28.3204 10.2306 26.599 10.0009 24.8896 9.99286C23.1802 10.0009 21.4608 10.2306 19.8559 10.6871C16.0128 8.02046 14.3236 8.57296 14.3236 8.57296C13.2316 11.4125 13.9214 13.5098 14.1285 14.0307C12.8434 15.4746 12.0571 17.3126 12.0571 19.565C12.0571 27.4643 16.7529 29.2348 21.2194 29.7557C20.6443 30.2705 20.1234 31.1787 19.9424 32.512C18.7961 33.0389 15.8841 33.9508 14.0903 30.7995C14.0903 30.7995 13.0264 28.8184 11.0073 28.6736C11.0073 28.6736 9.04658 28.6475 10.8706 29.9265C10.8706 29.9265 12.1878 30.56 13.1029 32.9431C13.1029 32.9431 14.2833 36.6232 19.8781 35.3764C19.8881 37.0999 19.9062 38.7242 19.9062 39.2149C19.9062 39.7598 19.5362 40.3977 18.5327 40.2066C10.5408 37.4817 4.77914 29.7512 4.77914 20.6412C4.77914 9.25264 13.7846 0.0220947 24.8896 0.0220947Z" fill="#DEDFDE"/>
</g>
<defs>
<filter id="filter0_d_19_60" x="0.779144" y="0.0220947" width="48.2209" height="48.2209" filterUnits="userSpaceOnUse" color-interpolation-filters="sRGB">
<feFlood flood-opacity="0" result="BackgroundImageFix"/>
<feColorMatrix in="SourceAlpha" type="matrix" values="0 0 0 0 0 0 0 0 0 0 0 0 0 0 0 0 0 0 127 0" result="hardAlpha"/>
<feOffset dy="4"/>
<feGaussianBlur stdDeviation="2"/>
<feComposite in2="hardAlpha" operator="out"/>
<feColorMatrix type="matrix" values="0 0 0 0 0 0 0 0 0 0 0 0 0 0 0 0 0 0 0.25 0"/>
<feBlend mode="normal" in2="BackgroundImageFix" result="effect1_dropShadow_19_60"/>
<feBlend mode="normal" in="SourceGraphic" in2="effect1_dropShadow_19_60" result="shape"/>
</filter>
<clipPath id="clip0_19_60">
<rect width="40.2209" height="40.2209" fill="white" transform="translate(4.77914 0.0220947)"/>
</clipPath>
</defs>
</svg>
