<svg width="49" height="49" viewBox="0 0 49 49" fill="none" xmlns="http://www.w3.org/2000/svg">
<g clip-path="url(#clip0_19_55)" filter="url(#filter0_d_19_55)">
<path fill-rule="evenodd" clip-rule="evenodd" d="M15.8829 0.268908C12.6091 0.41662 9.77162 1.21701 7.4804 3.49856C5.18118 5.79209 4.39073 8.64083 4.24265 11.8805C4.1506 13.9026 3.61235 29.1788 5.17318 33.185C6.22574 35.8877 8.29879 37.9658 11.0262 39.0218C12.2989 39.5168 13.7517 39.8519 15.8829 39.9497C33.7023 40.7561 40.3078 40.3171 43.0933 33.185C43.5876 31.9155 43.9278 30.4639 44.0218 28.3381C44.8363 10.4729 43.8898 6.60051 40.7841 3.49856C38.3208 1.04134 35.4233 -0.631335 15.8829 0.268908ZM16.0469 36.3567C14.0959 36.2689 13.0373 35.9438 12.331 35.6703C10.554 34.9797 9.2193 33.6505 8.53294 31.8839C7.3443 28.8398 7.73853 14.382 7.84459 12.0425C7.94864 9.751 8.41288 7.6567 10.0297 6.03986C12.0308 4.04374 14.6162 3.06545 32.2195 3.85992C34.5167 3.96371 36.6159 4.427 38.2368 6.03986C40.2378 8.03596 41.2303 10.6412 40.4219 28.177C40.3339 30.1233 40.0077 31.1793 39.7336 31.8839C37.9226 36.5249 33.7563 37.1691 16.0469 36.3567ZM32.4136 9.45313C32.4136 10.7746 33.4882 11.8491 34.815 11.8491C36.1417 11.8491 37.2182 10.7746 37.2182 9.45313C37.2182 8.13172 36.1417 7.05814 34.815 7.05814C33.4882 7.05814 32.4136 8.13172 32.4136 9.45313ZM13.8578 20.1083C13.8578 25.7693 18.4582 30.3589 24.1333 30.3589C29.8083 30.3589 34.4087 25.7693 34.4087 20.1083C34.4087 14.4474 29.8083 9.86064 24.1333 9.86064C18.4582 9.86064 13.8578 14.4474 13.8578 20.1083ZM17.4637 20.1083C17.4637 16.4355 20.4493 13.4556 24.1333 13.4556C27.8172 13.4556 30.8028 16.4355 30.8028 20.1083C30.8028 23.7832 27.8172 26.764 24.1333 26.764C20.4493 26.764 17.4637 23.7832 17.4637 20.1083Z" fill="#DEDFDE"/>
</g>
<defs>
<filter id="filter0_d_19_55" x="0.0787354" y="0.0220947" width="48.2209" height="48.2209" filterUnits="userSpaceOnUse" color-interpolation-filters="sRGB">
<feFlood flood-opacity="0" result="BackgroundImageFix"/>
<feColorMatrix in="SourceAlpha" type="matrix" values="0 0 0 0 0 0 0 0 0 0 0 0 0 0 0 0 0 0 127 0" result="hardAlpha"/>
<feOffset dy="4"/>
<feGaussianBlur stdDeviation="2"/>
<feComposite in2="hardAlpha" operator="out"/>
<feColorMatrix type="matrix" values="0 0 0 0 0 0 0 0 0 0 0 0 0 0 0 0 0 0 0.25 0"/>
<feBlend mode="normal" in2="BackgroundImageFix" result="effect1_dropShadow_19_55"/>
<feBlend mode="normal" in="SourceGraphic" in2="effect1_dropShadow_19_55" result="shape"/>
</filter>
<clipPath id="clip0_19_55">
<rect width="40.2209" height="40.2209" fill="white" transform="translate(4.07874 0.0220947)"/>
</clipPath>
</defs>
</svg>
