<svg width="92" height="56" viewBox="0 0 92 56" fill="none" xmlns="http://www.w3.org/2000/svg">
<g filter="url(#filter0_d_19_46)">
<path fill-rule="evenodd" clip-rule="evenodd" d="M43.2033 28.8568L20.4906 0.304749H4.16058V1.5609C5.56386 1.60617 6.63895 1.82119 7.38585 2.20596C8.13275 2.59073 8.99282 3.39421 9.96606 4.61642L10.9506 5.83863V38.3289C10.9506 40.7734 10.4527 42.5048 9.45681 43.5233C8.46094 44.5418 6.69553 45.0624 4.16058 45.085V46.3412H20.4906V45.085H19.4042C17.8425 45.085 16.4505 44.621 15.2283 43.6931C14.0288 42.7651 13.429 40.9771 13.429 38.3289V9.06389L44.5613 47.3936H44.5732V47.798H85.3265L87.4476 32.8111H86.161C85.0019 36.9838 83.0894 40.0901 80.4235 42.1301C77.7808 44.1701 74.2572 45.1901 69.8527 45.1901H67.0362C65.6916 45.1901 64.718 45.0046 64.1153 44.6337C63.5126 44.2628 63.0953 43.7876 62.8635 43.208C62.6549 42.6285 62.5505 41.0405 62.5505 38.4442V25.1611C64.7991 25.1611 66.5146 25.4625 67.6968 26.0652C68.8791 26.6448 69.9107 27.7923 70.7916 29.5077C71.6957 31.2231 72.2868 33.4254 72.565 36.1145H73.8863V11.426H72.565C72.1941 15.0887 71.3364 17.8589 69.9918 19.7367C68.6473 21.6144 66.4798 22.5532 63.4894 22.5532H62.5505V3.35885H67.4187C70.9886 3.35885 73.4227 3.56748 74.7209 3.98475C76.9463 4.6802 78.6617 5.76974 79.8672 7.25336C81.0958 8.73698 82.0463 11.1826 82.7185 14.5903H84.0399V0.646602H51.7587V0.304749H36.549V1.5609C39.1066 1.51564 40.9286 2.14937 42.015 3.46211C42.8072 4.43535 43.2033 6.30261 43.2033 9.06389V28.8568ZM48.4512 2.25378C48.2011 2.34602 47.9909 2.44325 47.8205 2.54546C47.1641 2.93023 46.6436 3.57528 46.2588 4.48062C45.8967 5.36332 45.7156 6.89108 45.7156 9.06389V46.5114H46.138C47.5057 46.5114 48.6068 46.268 49.4413 45.7812C50.0441 45.4566 50.5077 44.9003 50.8322 44.1121C51.0872 43.5558 51.2147 42.0953 51.2147 39.7308V8.7138C51.2147 6.58109 51.1568 5.27133 51.0409 4.78452C50.809 3.97316 50.3802 3.34726 49.7543 2.90681C49.3789 2.63019 48.9445 2.41252 48.4512 2.25378Z" fill="#DEDFDE"/>
</g>
<defs>
<filter id="filter0_d_19_46" x="0.160583" y="0.304749" width="91.287" height="55.4932" filterUnits="userSpaceOnUse" color-interpolation-filters="sRGB">
<feFlood flood-opacity="0" result="BackgroundImageFix"/>
<feColorMatrix in="SourceAlpha" type="matrix" values="0 0 0 0 0 0 0 0 0 0 0 0 0 0 0 0 0 0 127 0" result="hardAlpha"/>
<feOffset dy="4"/>
<feGaussianBlur stdDeviation="2"/>
<feComposite in2="hardAlpha" operator="out"/>
<feColorMatrix type="matrix" values="0 0 0 0 0 0 0 0 0 0 0 0 0 0 0 0 0 0 0.25 0"/>
<feBlend mode="normal" in2="BackgroundImageFix" result="effect1_dropShadow_19_46"/>
<feBlend mode="normal" in="SourceGraphic" in2="effect1_dropShadow_19_46" result="shape"/>
</filter>
</defs>
</svg>
