<svg width="1023" height="425" viewBox="0 0 1023 425" fill="none" xmlns="http://www.w3.org/2000/svg">
<g filter="url(#filter0_d_5_28)">
<path d="M64.825 63.5L148.45 168.625V95.75C148.45 85.5833 146.992 78.7083 144.075 75.125C140.075 70.2917 133.367 67.9583 123.95 68.125V63.5H179.95V68.125C172.783 69.0417 167.95 70.25 165.45 71.75C163.033 73.1667 161.117 75.5417 159.7 78.875C158.367 82.125 157.7 87.75 157.7 95.75V236.875H153.45L38.825 95.75V203.5C38.825 213.25 41.0333 219.833 45.45 223.25C49.95 226.667 55.075 228.375 60.825 228.375H64.825V233H4.70001V228.375C14.0333 228.292 20.5333 226.375 24.2 222.625C27.8667 218.875 29.7 212.5 29.7 203.5V83.875L26.075 79.375C22.4917 74.875 19.325 71.9167 16.575 70.5C13.825 69.0833 9.86668 68.2917 4.70001 68.125V63.5H64.825ZM230.475 63.5H317.975V68.125H313.6C307.017 68.125 302.475 68.8333 299.975 70.25C297.558 71.5833 295.808 73.4583 294.725 75.875C293.725 78.2917 293.225 84.3333 293.225 94V177C293.225 192.167 294.35 202.208 296.6 207.125C298.933 212.042 302.725 216.125 307.975 219.375C313.225 222.625 319.85 224.25 327.85 224.25C337.017 224.25 344.808 222.208 351.225 218.125C357.725 213.958 362.558 208.25 365.725 201C368.975 193.75 370.6 181.125 370.6 163.125V94C370.6 86.4167 369.808 81 368.225 77.75C366.642 74.5 364.642 72.25 362.225 71C358.475 69.0833 353.183 68.125 346.35 68.125V63.5H404.975V68.125H401.475C396.725 68.125 392.767 69.0833 389.6 71C386.433 72.9167 384.142 75.7917 382.725 79.625C381.642 82.2917 381.1 87.0833 381.1 94V158.375C381.1 178.292 379.767 192.667 377.1 201.5C374.517 210.333 368.142 218.458 357.975 225.875C347.808 233.292 333.933 237 316.35 237C301.683 237 290.35 235.042 282.35 231.125C271.433 225.792 263.725 218.958 259.225 210.625C254.725 202.292 252.475 191.083 252.475 177V94C252.475 84.25 251.933 78.2083 250.85 75.875C249.767 73.4583 247.892 71.5417 245.225 70.125C242.558 68.7083 237.642 68.0417 230.475 68.125V63.5ZM511.625 63.5L595.25 168.625V95.75C595.25 85.5833 593.792 78.7083 590.875 75.125C586.875 70.2917 580.167 67.9583 570.75 68.125V63.5H626.75V68.125C619.583 69.0417 614.75 70.25 612.25 71.75C609.833 73.1667 607.917 75.5417 606.5 78.875C605.167 82.125 604.5 87.75 604.5 95.75V236.875H600.25L485.625 95.75V203.5C485.625 213.25 487.833 219.833 492.25 223.25C496.75 226.667 501.875 228.375 507.625 228.375H511.625V233H451.5V228.375C460.833 228.292 467.333 226.375 471 222.625C474.667 218.875 476.5 212.5 476.5 203.5V83.875L472.875 79.375C469.292 74.875 466.125 71.9167 463.375 70.5C460.625 69.0833 456.667 68.2917 451.5 68.125V63.5H511.625ZM741.025 73.25V142.25H744.4C755.15 142.25 762.942 138.875 767.775 132.125C772.608 125.375 775.692 115.417 777.025 102.25H781.775V191H777.025C776.025 181.333 773.9 173.417 770.65 167.25C767.483 161.083 763.775 156.958 759.525 154.875C755.275 152.708 749.108 151.625 741.025 151.625V199.375C741.025 208.708 741.4 214.417 742.15 216.5C742.983 218.583 744.483 220.292 746.65 221.625C748.817 222.958 752.317 223.625 757.15 223.625H767.275C783.108 223.625 795.775 219.958 805.275 212.625C814.858 205.292 821.733 194.125 825.9 179.125H830.525L822.9 233H676.4V228.375H682.025C686.942 228.375 690.9 227.5 693.9 225.75C696.067 224.583 697.733 222.583 698.9 219.75C699.817 217.75 700.275 212.5 700.275 204V92.5C700.275 84.8333 700.067 80.125 699.65 78.375C698.817 75.4583 697.275 73.2083 695.025 71.625C691.858 69.2917 687.525 68.125 682.025 68.125H676.4V63.5H818.275V113.625H813.525C811.108 101.375 807.692 92.5833 803.275 87.25C798.942 81.9167 792.775 78 784.775 75.5C780.108 74 771.358 73.25 758.525 73.25H741.025ZM1000.67 59.625L1002.05 116.125H996.925C994.508 101.958 988.55 90.5833 979.05 82C969.633 73.3333 959.425 69 948.425 69C939.925 69 933.175 71.2917 928.175 75.875C923.258 80.375 920.8 85.5833 920.8 91.5C920.8 95.25 921.675 98.5833 923.425 101.5C925.842 105.417 929.717 109.292 935.05 113.125C938.967 115.875 948.008 120.75 962.175 127.75C982.008 137.5 995.383 146.708 1002.3 155.375C1009.13 164.042 1012.55 173.958 1012.55 185.125C1012.55 199.292 1007.01 211.5 995.925 221.75C984.925 231.917 970.925 237 953.925 237C948.592 237 943.55 236.458 938.8 235.375C934.05 234.292 928.092 232.25 920.925 229.25C916.925 227.583 913.633 226.75 911.05 226.75C908.883 226.75 906.592 227.583 904.175 229.25C901.758 230.917 899.8 233.458 898.3 236.875H893.675V172.875H898.3C901.967 190.875 909.008 204.625 919.425 214.125C929.925 223.542 941.217 228.25 953.3 228.25C962.633 228.25 970.05 225.708 975.55 220.625C981.133 215.542 983.925 209.625 983.925 202.875C983.925 198.875 982.842 195 980.675 191.25C978.592 187.5 975.383 183.958 971.05 180.625C966.717 177.208 959.05 172.792 948.05 167.375C932.633 159.792 921.55 153.333 914.8 148C908.05 142.667 902.842 136.708 899.175 130.125C895.592 123.542 893.8 116.292 893.8 108.375C893.8 94.875 898.758 83.375 908.675 73.875C918.592 64.375 931.092 59.625 946.175 59.625C951.675 59.625 957.008 60.2917 962.175 61.625C966.092 62.625 970.842 64.5 976.425 67.25C982.092 69.9167 986.05 71.25 988.3 71.25C990.467 71.25 992.175 70.5833 993.425 69.25C994.675 67.9167 995.842 64.7083 996.925 59.625H1000.67Z" fill="#DEDFDE"/>
<path d="M275.744 350.384V347.984L277.664 347.792C279.904 347.536 281.6 347.216 282.752 346.832C283.968 346.448 284.8 345.552 285.248 344.144C285.696 342.736 285.92 340.432 285.92 337.232V287.696C285.344 286.992 284.48 286.224 283.328 285.392C282.176 284.496 280.48 284.048 278.24 284.048H275.36V281.552L293.984 281.84C295.136 283.44 296.672 285.552 298.592 288.176C300.576 290.8 302.752 293.712 305.12 296.912C307.552 300.112 310.048 303.408 312.608 306.8C315.168 310.128 317.632 313.36 320 316.496C322.432 319.632 324.608 322.448 326.528 324.944C328.448 327.44 329.952 329.424 331.04 330.896V294.608C331.04 291.408 330.816 289.136 330.368 287.792C329.92 286.384 329.088 285.488 327.872 285.104C326.72 284.656 325.024 284.336 322.784 284.144L320.864 283.952V281.552L333.344 281.84L345.056 281.552V283.952L343.136 284.144C340.96 284.4 339.264 284.752 338.048 285.2C336.832 285.584 336 286.448 335.552 287.792C335.104 289.136 334.88 291.408 334.88 294.608V350H332C330.976 347.888 329.44 345.296 327.392 342.224C325.408 339.088 323.104 335.664 320.48 331.952C317.856 328.24 315.104 324.464 312.224 320.624C309.408 316.72 306.592 312.944 303.776 309.296C300.96 305.648 298.336 302.32 295.904 299.312C293.472 296.304 291.424 293.808 289.76 291.824V337.232C289.76 340.432 289.984 342.736 290.432 344.144C290.88 345.552 291.712 346.448 292.928 346.832C294.144 347.216 295.84 347.536 298.016 347.792L299.936 347.984V350.384L287.648 350L275.744 350.384ZM370.469 351.056C366.245 351.056 362.565 350.16 359.429 348.368C356.293 346.512 353.829 343.984 352.037 340.784C350.309 337.52 349.445 333.808 349.445 329.648C349.445 325.168 350.405 321.2 352.325 317.744C354.245 314.224 356.805 311.472 360.005 309.488C363.269 307.44 366.853 306.416 370.757 306.416C375.685 306.416 379.525 307.984 382.277 311.12C385.093 314.256 386.501 318.384 386.501 323.504C386.501 324.272 386.469 324.912 386.405 325.424C386.341 325.936 386.277 326.288 386.213 326.48H357.221C357.157 327.376 357.125 328.272 357.125 329.168C357.125 332.56 357.669 335.728 358.757 338.672C359.845 341.552 361.477 343.856 363.653 345.584C365.893 347.312 368.613 348.176 371.813 348.176C374.821 348.176 377.477 347.344 379.781 345.68C382.149 343.952 383.973 341.424 385.253 338.096L387.557 338.96C384.869 347.024 379.173 351.056 370.469 351.056ZM370.757 308.816C366.789 308.816 363.685 310.224 361.445 313.04C359.269 315.856 357.925 319.6 357.413 324.272H369.605C372.485 324.272 374.661 323.952 376.133 323.312C377.669 322.608 378.693 321.776 379.205 320.816C379.781 319.792 380.069 318.8 380.069 317.84C380.069 315.024 379.109 312.816 377.189 311.216C375.269 309.616 373.125 308.816 370.757 308.816ZM409.115 350L397.307 317.456C396.539 315.344 395.643 313.68 394.619 312.464C393.595 311.248 392.283 310.576 390.683 310.448L389.627 310.352V308.144L399.803 308.432L409.211 308.144V310.352L408.251 310.448C405.051 310.704 403.451 311.92 403.451 314.096C403.451 314.48 403.483 314.896 403.547 315.344C403.611 315.792 403.739 316.272 403.931 316.784L413.243 342.608L423.899 318.512C424.219 317.744 424.475 317.04 424.667 316.4C424.923 315.696 425.051 315.088 425.051 314.576C425.051 311.952 423.739 310.576 421.115 310.448L418.139 310.352V308.144H421.499C423.867 308.144 425.595 309.104 426.683 311.024C427.131 309.936 427.995 309.2 429.275 308.816C430.619 308.368 431.835 308.144 432.923 308.144H437.339V310.352L435.899 310.448C434.747 310.512 433.915 310.864 433.403 311.504C432.891 312.08 432.635 312.816 432.635 313.712C432.635 314.544 432.891 315.632 433.403 316.976L443.387 342.512L453.371 317.168C453.499 316.72 453.659 316.176 453.851 315.536C454.107 314.896 454.235 314.384 454.235 314C454.235 312.08 452.667 310.928 449.531 310.544L447.995 310.352V308.144L457.019 308.432L464.603 308.144V310.352L463.067 310.544C460.827 310.8 459.227 311.6 458.267 312.944C457.371 314.288 456.571 315.792 455.867 317.456L443.003 350H439.355L426.875 317.84L412.763 350H409.115ZM515.289 350.864L496.473 292.976C495.641 290.224 494.489 288.24 493.017 287.024C491.545 285.744 489.785 284.88 487.737 284.432L485.529 283.952V281.552L499.929 281.84L514.137 281.552V283.952L511.449 284.24C509.721 284.432 508.089 284.816 506.553 285.392C505.081 285.968 504.345 287.248 504.345 289.232C504.345 290.192 504.569 291.312 505.017 292.592L519.705 337.904L536.409 292.496C536.793 291.344 536.985 290.384 536.985 289.616C536.985 288.144 536.441 287.024 535.353 286.256C534.265 285.424 532.793 284.88 530.937 284.624L527.097 284.048L527.481 281.552L531.513 282.032C536.121 282.544 538.937 283.952 539.961 286.256C540.921 284.336 542.329 283.12 544.185 282.608C546.105 282.096 547.929 281.808 549.657 281.744L553.209 281.552L553.401 284.048L549.753 284.336C545.593 284.656 543.513 286.416 543.513 289.616C543.513 290.96 543.833 292.464 544.473 294.128L560.505 337.616L574.617 291.44C574.937 290.288 575.097 289.36 575.097 288.656C575.097 287.248 574.617 286.256 573.657 285.68C572.697 285.104 571.289 284.688 569.433 284.432L566.265 284.048V281.552L578.937 281.84L589.113 281.552V284.048L586.809 284.432C584.697 284.752 582.873 285.392 581.337 286.352C579.865 287.248 578.873 288.592 578.361 290.384L559.929 350.864H556.857L537.465 299.12L518.361 350.864H515.289ZM607.306 351.056C603.21 351.056 599.466 350.064 596.074 348.08C592.746 346.096 590.09 343.44 588.106 340.112C586.186 336.72 585.226 332.976 585.226 328.88C585.226 324.656 586.186 320.848 588.106 317.456C590.09 314.064 592.746 311.376 596.074 309.392C599.466 307.408 603.21 306.416 607.306 306.416C611.466 306.416 615.21 307.408 618.538 309.392C621.866 311.376 624.49 314.064 626.41 317.456C628.394 320.848 629.386 324.656 629.386 328.88C629.386 332.976 628.394 336.72 626.41 340.112C624.49 343.44 621.866 346.096 618.538 348.08C615.21 350.064 611.466 351.056 607.306 351.056ZM607.306 348.656C610.762 348.656 613.546 347.792 615.658 346.064C617.77 344.272 619.306 341.904 620.266 338.96C621.226 335.952 621.706 332.592 621.706 328.88C621.706 325.04 621.226 321.616 620.266 318.608C619.306 315.6 617.77 313.232 615.658 311.504C613.546 309.712 610.762 308.816 607.306 308.816C603.85 308.816 601.066 309.712 598.954 311.504C596.842 313.232 595.306 315.6 594.346 318.608C593.386 321.616 592.906 325.04 592.906 328.88C592.906 332.592 593.386 335.952 594.346 338.96C595.306 341.904 596.842 344.272 598.954 346.064C601.066 347.792 603.85 348.656 607.306 348.656ZM636.376 350.288V348.08L637.912 347.888C639.768 347.632 641.176 347.344 642.136 347.024C643.16 346.64 643.864 345.84 644.248 344.624C644.632 343.344 644.824 341.264 644.824 338.384V318.416C644.824 315.92 644.472 314.096 643.768 312.944C643.128 311.792 642.168 311.088 640.888 310.832C639.608 310.512 638.104 310.352 636.376 310.352V308.144C639 308.144 641.528 308.048 643.96 307.856C646.392 307.664 648.92 307.376 651.544 306.992L650.488 318.032H650.872C652.28 313.744 654.008 310.736 656.056 309.008C658.104 307.28 660.312 306.416 662.68 306.416C665.368 306.416 667.16 307.088 668.056 308.432C668.952 309.712 669.4 310.96 669.4 312.176C669.4 313.584 668.984 314.736 668.152 315.632C667.32 316.528 666.2 316.976 664.792 316.976C663.448 316.976 662.424 316.656 661.72 316.016C661.016 315.376 660.664 314.64 660.664 313.808C660.664 313.168 660.728 312.56 660.856 311.984C661.048 311.408 661.144 310.96 661.144 310.64C661.144 310 660.696 309.68 659.8 309.68C658.904 309.68 657.944 310.096 656.92 310.928C655.96 311.76 655.128 312.912 654.424 314.384C653.848 315.6 653.304 316.944 652.792 318.416C652.28 319.888 651.864 321.488 651.544 323.216V338.384C651.544 341.264 651.736 343.344 652.12 344.624C652.504 345.84 653.176 346.64 654.136 347.024C655.16 347.344 656.6 347.632 658.456 347.888L659.992 348.08V350.288L648.184 350L636.376 350.288ZM672.721 350.288V348.08L674.257 347.888C676.113 347.632 677.521 347.344 678.481 347.024C679.505 346.64 680.209 345.84 680.593 344.624C680.977 343.344 681.169 341.264 681.169 338.384V291.536C681.169 288.208 680.465 286.096 679.057 285.2C677.713 284.24 675.825 283.76 673.393 283.76H672.721V281.552C675.345 281.552 677.873 281.488 680.305 281.36C682.737 281.168 685.265 280.848 687.889 280.4V338.384C687.889 341.264 688.081 343.344 688.465 344.624C688.849 345.84 689.521 346.64 690.481 347.024C691.505 347.344 692.945 347.632 694.801 347.888L696.337 348.08V350.288L684.529 350L672.721 350.288ZM721.621 351.056C717.973 351.056 714.677 350.064 711.733 348.08C708.789 346.096 706.453 343.408 704.725 340.016C702.997 336.56 702.133 332.752 702.133 328.592C702.133 324.432 702.997 320.688 704.725 317.36C706.453 314.032 708.821 311.376 711.829 309.392C714.837 307.408 718.229 306.416 722.005 306.416C724.693 306.416 727.157 306.992 729.397 308.144C731.637 309.232 733.493 310.48 734.965 311.888V291.536C734.965 288.208 734.261 286.096 732.853 285.2C731.509 284.24 729.621 283.76 727.189 283.76H726.517V281.552C729.141 281.552 731.669 281.488 734.101 281.36C736.533 281.168 739.061 280.848 741.685 280.4V339.536C741.685 343.12 742.357 345.392 743.701 346.352C745.109 347.312 747.093 347.792 749.653 347.792V350H745.717C744.309 350 742.933 350.032 741.589 350.096C740.245 350.224 738.741 350.448 737.077 350.768L735.829 344.048C734.101 346.096 732.021 347.792 729.589 349.136C727.221 350.416 724.565 351.056 721.621 351.056ZM709.812 328.592C709.812 332.304 710.261 335.632 711.157 338.576C712.117 341.52 713.525 343.856 715.381 345.584C717.301 347.312 719.701 348.176 722.581 348.176C725.333 348.176 727.701 347.568 729.685 346.352C731.733 345.072 733.493 343.536 734.965 341.744V315.824C733.877 314.16 732.245 312.656 730.069 311.312C727.893 309.968 725.493 309.296 722.869 309.296C719.925 309.296 717.493 310.16 715.573 311.888C713.653 313.552 712.213 315.856 711.253 318.8C710.293 321.68 709.812 324.944 709.812 328.592Z" fill="#DEDFDE"/>
<line x1="753" y1="321" x2="959.027" y2="321" stroke="#DEDFDE" stroke-width="2"/>
<line x1="67" y1="321" x2="273.027" y2="321" stroke="#DEDFDE" stroke-width="2"/>
</g>
<defs>
<filter id="filter0_d_5_28" x="-3" y="0" width="1030" height="433" filterUnits="userSpaceOnUse" color-interpolation-filters="sRGB">
<feFlood flood-opacity="0" result="BackgroundImageFix"/>
<feColorMatrix in="SourceAlpha" type="matrix" values="0 0 0 0 0 0 0 0 0 0 0 0 0 0 0 0 0 0 127 0" result="hardAlpha"/>
<feOffset dy="4"/>
<feGaussianBlur stdDeviation="2"/>
<feComposite in2="hardAlpha" operator="out"/>
<feColorMatrix type="matrix" values="0 0 0 0 0 0 0 0 0 0 0 0 0 0 0 0 0 0 0.25 0"/>
<feBlend mode="normal" in2="BackgroundImageFix" result="effect1_dropShadow_5_28"/>
<feBlend mode="normal" in="SourceGraphic" in2="effect1_dropShadow_5_28" result="shape"/>
</filter>
</defs>
</svg>
