<svg width="49" height="52" viewBox="0 0 49 52" fill="none" xmlns="http://www.w3.org/2000/svg">
<g filter="url(#filter0_d_19_50)">
<path fill-rule="evenodd" clip-rule="evenodd" d="M35.925 31.8165C35.4643 33.1204 33.6333 34.1991 32.173 34.5145C31.1734 34.7267 29.8699 34.8946 25.4776 33.0745C20.5445 31.0307 13.6944 23.7505 13.6944 18.9057C13.6944 16.4394 15.1164 13.5674 17.603 13.5674C18.7995 13.5674 19.0633 13.5908 19.457 14.5352C19.9176 15.648 21.0415 18.3895 21.1753 18.6705C21.7276 19.8234 20.6133 20.4983 19.8048 21.502C19.5468 21.8041 19.2544 22.1308 19.5812 22.6929C19.9062 23.2435 21.03 25.0752 22.6814 26.5454C24.8144 28.4458 26.5442 29.0525 27.1634 29.3107C27.6241 29.5018 28.1745 29.4573 28.5109 29.0979C28.9371 28.6371 29.4666 27.8726 30.0056 27.1194C30.3859 26.5802 30.8695 26.5129 31.376 26.7041C31.7181 26.8226 36.0664 28.842 36.2499 29.1651C36.3856 29.4002 36.3856 30.5125 35.925 31.8165ZM24.803 4.82651H24.7934C14.2563 4.82651 5.68591 13.3995 5.68591 23.9397C5.68591 28.1191 7.03341 31.9966 9.32508 35.1417L6.94357 42.2438L14.2888 39.8967C17.3106 41.8965 20.9172 43.0529 24.803 43.0529C35.3401 43.0529 43.9124 34.48 43.9124 23.9397C43.9124 13.3995 35.3401 4.82651 24.803 4.82651Z" fill="#DEDFDE"/>
</g>
<defs>
<filter id="filter0_d_19_50" x="-3.6658" y="0" width="56.265" height="56.265" filterUnits="userSpaceOnUse" color-interpolation-filters="sRGB">
<feFlood flood-opacity="0" result="BackgroundImageFix"/>
<feColorMatrix in="SourceAlpha" type="matrix" values="0 0 0 0 0 0 0 0 0 0 0 0 0 0 0 0 0 0 127 0" result="hardAlpha"/>
<feOffset dy="4"/>
<feGaussianBlur stdDeviation="2"/>
<feComposite in2="hardAlpha" operator="out"/>
<feColorMatrix type="matrix" values="0 0 0 0 0 0 0 0 0 0 0 0 0 0 0 0 0 0 0.25 0"/>
<feBlend mode="normal" in2="BackgroundImageFix" result="effect1_dropShadow_19_50"/>
<feBlend mode="normal" in="SourceGraphic" in2="effect1_dropShadow_19_50" result="shape"/>
</filter>
</defs>
</svg>
